<svg xmlns="http://www.w3.org/2000/svg" viewBox="0 0 512 512" role="img" aria-label="CyberSabil">
<defs><linearGradient id="g" x1="0" y1="0" x2="1" y2="1"><stop stop-color="#35d7ff"/><stop offset=".48" stop-color="#8b5cf6"/><stop offset="1" stop-color="#f7d88a"/></linearGradient></defs>
<rect width="512" height="512" rx="132" fill="#07111f"/><rect x="34" y="34" width="444" height="444" rx="112" fill="url(#g)" opacity=".18"/>
<path d="M137 151c38-55 92-76 162-59 32 8 58 24 78 47l-48 48c-17-17-37-27-61-30-41-5-73 11-91 49-17 36-12 72 14 102 27 30 61 40 102 27 14-5 27-13 38-25l50 46c-27 31-61 51-102 59-71 13-128-9-169-65-37-50-45-104-23-163 11-29 27-54 50-76z" fill="#eaf2ff"/>
<text x="256" y="305" text-anchor="middle" font-family="Segoe UI,Arial" font-size="104" font-weight="900" fill="#07111f">CS</text>
</svg>